<svg xmlns="http://www.w3.org/2000/svg" width="439.231" height="315.889" viewBox="0 0 439.231 315.889">
  <g id="Howard_Havens_Logo_V1.1" data-name="Howard Havens Logo V1.1" transform="translate(0)">
    <g id="House">
      <g id="Union_2" data-name="Union 2" transform="translate(-29.992 -5.111)" fill="none">
        <path d="M93,321a24,24,0,0,1-24-24V168H47.027c-15.908,0-23.1-19.9-10.871-30.071L191.129,9.041a17,17,0,0,1,21.741,0L269,55.722V55a24,24,0,0,1,24-24h18a24,24,0,0,1,24,24v55.613l32.845,27.316C380.075,148.1,372.882,168,356.973,168H335V297a24,24,0,0,1-24,24Z" stroke="none"/>
        <path d="M 311.0003967285156 309.0002746582031 C 317.6168823242188 309.0002746582031 322.9998474121094 303.6170043945313 322.9998474121094 297 L 322.9998474121094 168.0002899169922 L 322.9998474121094 156.0002899169922 L 334.9998474121094 156.0002899169922 L 356.9732971191406 156.0002899169922 C 360.0265197753906 156.0002899169922 361.2299499511719 153.9326171875 361.6755065917969 152.7001190185547 C 362.1211853027344 151.4674072265625 362.5182800292969 149.1078948974609 360.1712341308594 147.1556701660156 L 327.3266296386719 119.8394012451172 L 322.9998474121094 116.2408447265625 L 322.9998474121094 110.6132354736328 L 322.9998474121094 54.99990081787109 C 322.9998474121094 48.38290023803711 317.6168823242188 42.9996223449707 311.0003967285156 42.9996223449707 L 293.0003967285156 42.9996223449707 C 286.3833923339844 42.9996223449707 281.0001220703125 48.38290023803711 281.0001220703125 55.7224006652832 L 281.0001220703125 81.31045532226563 L 261.326904296875 64.94850921630859 L 205.1981201171875 18.26717758178711 C 204.0493469238281 17.31184387207031 202.824951171875 17.11134338378906 202.0000610351563 17.11134338378906 C 201.1751708984375 17.11134338378906 199.9507904052734 17.31184387207031 198.8026123046875 18.26662254333496 L 43.82911682128906 147.155517578125 C 41.48156356811523 149.1079559326172 41.87856292724609 151.4672393798828 42.32411956787109 152.6997833251953 C 42.76972961425781 153.9324035644531 43.97322845458984 156.0002899169922 47.02684020996094 156.0002899169922 L 69.00028228759766 156.0002899169922 L 81.00028228759766 156.0002899169922 L 81.00028228759766 168.0002899169922 L 81.00028228759766 297 C 81.00028228759766 303.6170043945313 86.38323211669922 309.0002746582031 92.99973297119141 309.0002746582031 L 311.0003967285156 309.0002746582031 M 311.0003967285156 321.0002746582031 L 92.99973297119141 321.0002746582031 C 79.74539947509766 321.0002746582031 69.00028228759766 310.2552185058594 69.00028228759766 297 L 69.00028228759766 168.0002899169922 L 47.02684020996094 168.0002899169922 C 31.1183967590332 168.0002899169922 23.92473030090332 148.1021728515625 36.15573120117188 137.9295043945313 L 191.12939453125 9.040511131286621 C 194.2794036865234 6.421066284179688 198.1397247314453 5.111343860626221 202.0000610351563 5.111343860626221 C 205.8603973388672 5.111343860626221 209.7207336425781 6.421066284179688 212.8707275390625 9.040511131286621 L 269.0001220703125 55.7224006652832 L 269.0001220703125 54.99990081787109 C 269.0001220703125 41.74562072753906 279.7452392578125 30.9996223449707 293.0003967285156 30.9996223449707 L 311.0003967285156 30.9996223449707 C 324.2547302246094 30.9996223449707 334.9998474121094 41.74562072753906 334.9998474121094 54.99990081787109 L 334.9998474121094 110.6132354736328 L 367.8444519042969 137.9295043945313 C 380.0744934082031 148.1021728515625 372.8817443847656 168.0002899169922 356.9732971191406 168.0002899169922 L 334.9998474121094 168.0002899169922 L 334.9998474121094 297 C 334.9998474121094 310.2552185058594 324.2547302246094 321.0002746582031 311.0003967285156 321.0002746582031 Z" stroke="none" fill="#707070"/>
      </g>
    </g>
    <g id="H" transform="translate(77.008 100.889)">
      <path id="Path_2" data-name="Path 2" d="M136.626,153.038V104.725H53.831v56.412l16.968.838v23.738H0V163.091l9.654-.838a15.333,15.333,0,0,0,3.383-.686,6.893,6.893,0,0,0,5.1-7.134V24.575L1.463,23.738V0h70.8V22.621l-9.654.838a22.728,22.728,0,0,0-2.426.414A10.321,10.321,0,0,0,56.17,25.59q-.149.116-.291.242-1.8,1.6-2.018,5.681-.03.58-.03,1.161V75.96h82.795V24.575l-16.676-.838V0h70.8V22.621l-9.654.838a13.081,13.081,0,0,0-3.605.829,7.3,7.3,0,0,0-4.685,5.826,12.676,12.676,0,0,0-.194,2.282V161.137l16.676.838v23.738h-70.8V163.091l9.654-.838a15.813,15.813,0,0,0,4.548-1.179,7.545,7.545,0,0,0,1.889-1.195q1.8-1.6,2.018-5.681.03-.58.03-1.161Z" fill="#e78200" stroke="#e78200" stroke-linecap="round" stroke-width="0.945" fill-rule="evenodd"/>
    </g>
    <g id="Set_of_Keys" data-name="Set of Keys" transform="translate(292.008 142.889)">
      <g id="Keys_Final" transform="translate(25.197 16.076)">
        <path id="Subtraction_3" data-name="Subtraction 3" d="M540.138-52.932h0l-15-10.772,2.693-2.433-.949-3.309-6.14-1.717-1.481-6.987,3.835-4.5-6.787-3.975-1.066-5.538L520.889-97l-8.32-4.5-1.8-6.281,6.219-2.829L512.569-113l-.671-2.344.064-.018a26.6,26.6,0,0,1-13.982-6.142,27.118,27.118,0,0,1-8.555-13.276,27.152,27.152,0,0,1-.888-10.654,26.864,26.864,0,0,1,3.1-9.8,26.988,26.988,0,0,1,2.027-3.178A29.964,29.964,0,0,0,492.157-149a30.034,30.034,0,0,0,30,30,30.029,30.029,0,0,0,8.647-1.265l13.859,62.192-4.525,5.14Z" transform="translate(-485.354 186.924)" fill="#e78200" stroke="#e78200" stroke-width="1"/>
        <path id="Exclusion_1" data-name="Exclusion 1" d="M26.94,53a27.156,27.156,0,0,1-10.486-2.082A26.879,26.879,0,0,1,7.89,45.238a26.391,26.391,0,0,1-5.773-8.423,26.187,26.187,0,0,1,0-20.63A26.391,26.391,0,0,1,7.89,7.762a26.879,26.879,0,0,1,8.563-5.679A27.368,27.368,0,0,1,42.462,4.838a26.873,26.873,0,0,1,5.788,5.448,26.309,26.309,0,0,1,3.931,6.934L115.9,21.046l3.694,5.767L105.11,38.259,103.514,35h-3.443l-3.343,5.428-7.125-.5L86.336,35l-5.692,5.428-5.617-.5L71.935,33.17l-6.622,6.757H58.778L57.773,33.17l-3.518,3.586H51.817v-.067a26.593,26.593,0,0,1-9.757,11.747A27.115,27.115,0,0,1,26.94,53ZM11,19.307a7.571,7.571,0,1,0,7.589,7.571A7.589,7.589,0,0,0,11,19.307Z" transform="matrix(0.695, 0.719, -0.719, 0.695, 38.125, 0)" fill="#707070" stroke="#707070" stroke-width="1"/>
      </g>
      <g id="Key_hoop" data-name="Key hoop">
        <g id="Subtraction_2" data-name="Subtraction 2" transform="translate(-482 179)" fill="#707070">
          <path d="M 486.7705993652344 -143.2445678710938 C 486.2586364746094 -145.2744598388672 486.0003967285156 -147.3669891357422 486.0003967285156 -149.4999084472656 C 486.0003967285156 -152.9451446533203 486.673828125 -156.2844085693359 488.0019836425781 -159.4249572753906 C 489.2855529785156 -162.4593658447266 491.1250915527344 -165.1871337890625 493.4693298339844 -167.5321807861328 C 495.8111572265625 -169.8739624023438 498.5387878417969 -171.7130126953125 501.5758666992188 -172.9977416992188 C 504.7174987792969 -174.3263702392578 508.0567626953125 -175.0001068115234 511.5006103515625 -175.0001068115234 C 514.94384765625 -175.0001068115234 518.2828369140625 -174.3263702392578 521.4247436523438 -172.9976196289063 C 524.4603271484375 -171.7135467529297 527.1880493164063 -169.8743438720703 529.531982421875 -167.5312194824219 C 531.875244140625 -165.1871643066406 533.7147827148438 -162.4593963623047 534.9984741210938 -159.4246520996094 C 536.0045776367188 -157.045654296875 536.6351318359375 -154.5535736083984 536.8819580078125 -151.9882659912109 C 536.8814697265625 -151.9882659912109 536.8807373046875 -151.9882965087891 536.8803100585938 -151.9882965087891 C 535.6256713867188 -164.8859405517578 524.7221069335938 -174.9999847412109 511.5006103515625 -174.9999847412109 C 497.4398193359375 -174.9999847412109 486.0005187988281 -163.5606994628906 486.0005187988281 -149.4999084472656 C 486.0005187988281 -147.3477783203125 486.2669372558594 -145.2506408691406 486.7705993652344 -143.2445678710938 Z" stroke="none"/>
          <path d="M 506.1017456054688 -120.4908218383789 L 506.1006469726563 -120.4910202026367 C 504.0224914550781 -120.8751907348633 501.975830078125 -121.4898986816406 500.0175170898438 -122.3180999755859 C 496.5031433105469 -123.8047180175781 493.3482055664063 -125.9319152832031 490.6404113769531 -128.6405944824219 C 487.9303588867188 -131.3506622314453 485.8031921386719 -134.5055694580078 484.3179016113281 -138.0176849365234 C 482.7801208496094 -141.6539154052734 482.0003967285156 -145.51708984375 482.0003967285156 -149.4999084472656 C 482.0003967285156 -153.4833221435547 482.7801208496094 -157.3467864990234 484.3179016113281 -160.9829864501953 C 485.8031616210938 -164.4942169189453 487.9303588867188 -167.6491394042969 490.6404113769531 -170.360107421875 C 493.3487854003906 -173.0684356689453 496.5037231445313 -175.1953277587891 500.0175170898438 -176.6816864013672 C 503.6551208496094 -178.2200775146484 507.5185852050781 -179.0000915527344 511.5006103515625 -179.0000915527344 C 515.4820556640625 -179.0000915527344 519.34521484375 -178.2200775146484 522.9827880859375 -176.6816864013672 C 526.4951782226563 -175.1959075927734 529.6500854492188 -173.0690307617188 532.3599243164063 -170.360107421875 C 535.0699462890625 -167.6491851806641 537.1971435546875 -164.4942626953125 538.6824340820313 -160.9829864501953 C 540.2208251953125 -157.3453826904297 541.0007934570313 -153.4819030761719 541.0007934570313 -149.4999084472656 C 541.0007934570313 -148.8653869628906 540.9805908203125 -148.2244110107422 540.9407348632813 -147.5947570800781 C 539.3213500976563 -147.8630828857422 537.6596069335938 -147.9996032714844 536.0004272460938 -147.9996032714844 C 534.9791870117188 -147.9996032714844 533.94873046875 -147.9476470947266 532.9376831054688 -147.8451843261719 C 532.9791259765625 -148.387939453125 533.000732421875 -148.9443054199219 533.000732421875 -149.4999084472656 C 533.000732421875 -161.3550872802734 523.3558349609375 -170.9999847412109 511.5006103515625 -170.9999847412109 C 499.6454162597656 -170.9999847412109 490.0005187988281 -161.3550872802734 490.0005187988281 -149.4999084472656 C 490.0005187988281 -139.0131225585938 497.4947509765625 -130.1035614013672 507.8201904296875 -128.3149719238281 C 506.9004211425781 -125.8029632568359 506.322021484375 -123.1713485717773 506.1018371582031 -120.4919128417969 L 506.1017456054688 -120.4908218383789 Z" stroke="none" fill="#707070"/>
        </g>
        <path id="Path_3" data-name="Path 3" d="M32.268,440.236a32.917,32.917,0,0,1,2.857,10.52c.056.765-.4,8.392-2.857,13.587" transform="translate(20 -422)" fill="none" stroke="#707070" stroke-linecap="round" stroke-width="8"/>
      </g>
    </g>
  </g>
</svg>
