<svg id="Howard_Havens_Logo_V1.2" data-name="Howard Havens Logo V1.2" xmlns="http://www.w3.org/2000/svg" width="434.458" height="315.589" viewBox="0 0 434.458 315.589">
  <g id="Union_2" data-name="Union 2" transform="translate(-31.757 -5.412)" fill="none">
    <path d="M93,321a24,24,0,0,1-24-24V168H49.792c-16.843,0-24.46-21.069-11.509-31.839L190.49,9.572a18,18,0,0,1,23.019,0L269,55.723V55a24,24,0,0,1,24-24h18a24,24,0,0,1,24,24v55.614l30.717,25.547C378.668,146.931,371.051,168,354.208,168H335V297a24,24,0,0,1-24,24Z" stroke="none"/>
    <path d="M 311.0004272460938 305.0003356933594 C 315.4112854003906 305.0003356933594 318.9998168945313 301.411376953125 318.9998168945313 297.0000305175781 L 318.9998168945313 168.0003204345703 L 318.9998168945313 152.0003204345703 L 334.9998168945313 152.0003204345703 L 354.2075805664063 152.0003204345703 C 354.697998046875 152.0003204345703 355.6109313964844 152.0003204345703 356.088134765625 150.6800842285156 C 356.5652465820313 149.3601989746094 355.889892578125 148.7984924316406 355.48583984375 148.4624938964844 L 324.7688293457031 122.9155578613281 L 318.9998168945313 118.117561340332 L 318.9998168945313 110.6140899658203 L 318.9998168945313 54.99991226196289 C 318.9998168945313 50.58855819702148 315.4112854003906 46.99961853027344 311.0004272460938 46.99961853027344 L 293.0004272460938 46.99961853027344 C 288.5890502929688 46.99961853027344 285.0001220703125 50.58855819702148 285.0001220703125 55.72303009033203 L 285.0001220703125 89.84049987792969 L 258.7691345214844 68.02449798583984 L 203.279296875 21.87432289123535 C 202.8194732666016 21.49197006225586 202.3296508789063 21.41167640686035 201.9997100830078 21.41167640686035 C 201.6700592041016 21.41167640686035 201.1807708740234 21.49179267883301 200.7214202880859 21.87385177612305 L 48.51376724243164 148.4629058837891 C 48.11023712158203 148.7984924316406 47.43488311767578 149.3601989746094 47.91200256347656 150.6800842285156 C 48.38917922973633 152.0003204345703 49.30212020874023 152.0003204345703 49.79253005981445 152.0003204345703 L 69.00029754638672 152.0003204345703 L 85.00029754638672 152.0003204345703 L 85.00029754638672 168.0003204345703 L 85.00029754638672 297.0000305175781 C 85.00029754638672 301.411376953125 88.58882904052734 305.0003356933594 92.99971008300781 305.0003356933594 L 311.0004272460938 305.0003356933594 M 311.0004272460938 321.0003356933594 L 92.99971008300781 321.0003356933594 C 79.74541473388672 321.0003356933594 69.00029754638672 310.2552185058594 69.00029754638672 297.0000305175781 L 69.00029754638672 168.0003204345703 L 49.79253005981445 168.0003204345703 C 32.94900131225586 168.0003204345703 25.33229637145996 146.9313201904297 38.28329467773438 136.1610260009766 L 190.4904174804688 9.572381973266602 C 193.8253479003906 6.798587322235107 197.9124755859375 5.411690235137939 201.9997100830078 5.411690235137939 C 206.0869445800781 5.411690235137939 210.1743011474609 6.798587322235107 213.5097045898438 9.572381973266602 L 269.0001220703125 55.72303009033203 L 269.0001220703125 54.99991226196289 C 269.0001220703125 41.7456169128418 279.7452392578125 30.9996166229248 293.0004272460938 30.9996166229248 L 311.0004272460938 30.9996166229248 C 324.2546997070313 30.9996166229248 334.9998168945313 41.7456169128418 334.9998168945313 54.99991226196289 L 334.9998168945313 110.6140899658203 L 365.7168273925781 136.1610260009766 C 378.6678161621094 146.9313201904297 371.0511169433594 168.0003204345703 354.2075805664063 168.0003204345703 L 334.9998168945313 168.0003204345703 L 334.9998168945313 297.0000305175781 C 334.9998168945313 310.2552185058594 324.2546997070313 321.0003356933594 311.0004272460938 321.0003356933594 Z" stroke="none" fill="#fff"/>
  </g>
  <path id="Path_2" data-name="Path 2" d="M136.626,153.038V104.725H53.831v56.412l16.968.838v23.738H0V163.091l9.654-.838a15.333,15.333,0,0,0,3.383-.686,6.893,6.893,0,0,0,5.1-7.134V24.575L1.463,23.738V0h70.8V22.621l-9.654.838a22.728,22.728,0,0,0-2.426.414A10.321,10.321,0,0,0,56.17,25.59q-.149.116-.291.242-1.8,1.6-2.018,5.681-.03.58-.03,1.161V75.96h82.795V24.575l-16.676-.838V0h70.8V22.621l-9.654.838a13.081,13.081,0,0,0-3.605.829,7.3,7.3,0,0,0-4.685,5.826,12.676,12.676,0,0,0-.194,2.282V161.137l16.676.838v23.738h-70.8V163.091l9.654-.838a15.813,15.813,0,0,0,4.548-1.179,7.545,7.545,0,0,0,1.889-1.195q1.8-1.6,2.018-5.681.03-.58.03-1.161Z" transform="translate(75.235 102.7)" fill="#e78200" stroke="#e78200" stroke-linecap="round" stroke-width="0.945" fill-rule="evenodd"/>
  <path id="Subtraction_3" data-name="Subtraction 3" d="M540.138-52.932h0l-15-10.772,2.693-2.433-.949-3.309-6.14-1.717-1.481-6.987,3.835-4.5-6.787-3.975-1.066-5.538L520.889-97l-8.32-4.5-1.8-6.281,6.219-2.829L512.569-113l-.671-2.344.064-.018a26.6,26.6,0,0,1-13.982-6.142,27.118,27.118,0,0,1-8.555-13.276,27.152,27.152,0,0,1-.888-10.654,26.864,26.864,0,0,1,3.1-9.8,26.988,26.988,0,0,1,2.027-3.178A29.964,29.964,0,0,0,492.157-149a30.034,30.034,0,0,0,30,30,30.029,30.029,0,0,0,8.647-1.265l13.859,62.192-4.525,5.14Z" transform="translate(-172.922 341.7)" fill="#e78200" stroke="#e78200" stroke-width="1"/>
  <path id="Exclusion_1" data-name="Exclusion 1" d="M26.94,53a27.156,27.156,0,0,1-10.486-2.082A26.879,26.879,0,0,1,7.89,45.238a26.391,26.391,0,0,1-5.773-8.423,26.187,26.187,0,0,1,0-20.63A26.391,26.391,0,0,1,7.89,7.762a26.879,26.879,0,0,1,8.563-5.679A27.368,27.368,0,0,1,42.462,4.838a26.873,26.873,0,0,1,5.788,5.448,26.309,26.309,0,0,1,3.931,6.934L115.9,21.046l3.694,5.767L105.11,38.259,103.514,35h-3.443l-3.343,5.428-7.125-.5L86.336,35l-5.692,5.428-5.617-.5L71.935,33.17l-6.622,6.757H58.778L57.773,33.17l-3.518,3.586H51.817v-.067a26.593,26.593,0,0,1-9.757,11.747A27.115,27.115,0,0,1,26.94,53ZM11,19.307a7.571,7.571,0,1,0,7.589,7.571A7.589,7.589,0,0,0,11,19.307Z" transform="matrix(0.695, 0.719, -0.719, 0.695, 350.557, 154.775)" fill="#fff" stroke="#fff" stroke-width="1"/>
  <g id="Subtraction_2" data-name="Subtraction 2" transform="translate(-194.765 317.7)" fill="#fff">
    <path d="M 486.7705993652344 -143.2445678710938 C 486.2586364746094 -145.2744598388672 486.0003967285156 -147.3669891357422 486.0003967285156 -149.4999084472656 C 486.0003967285156 -152.9451446533203 486.673828125 -156.2844085693359 488.0019836425781 -159.4249572753906 C 489.2855529785156 -162.4593658447266 491.1250915527344 -165.1871337890625 493.4693298339844 -167.5321807861328 C 495.8111572265625 -169.8739624023438 498.5387878417969 -171.7130126953125 501.5758666992188 -172.9977416992188 C 504.7174987792969 -174.3263702392578 508.0567626953125 -175.0001068115234 511.5006103515625 -175.0001068115234 C 514.94384765625 -175.0001068115234 518.2828369140625 -174.3263702392578 521.4247436523438 -172.9976196289063 C 524.4603271484375 -171.7135467529297 527.1880493164063 -169.8743438720703 529.531982421875 -167.5312194824219 C 531.875244140625 -165.1871643066406 533.7147827148438 -162.4593963623047 534.9984741210938 -159.4246520996094 C 536.0045776367188 -157.045654296875 536.6351318359375 -154.5535736083984 536.8819580078125 -151.9882659912109 C 536.8814697265625 -151.9882659912109 536.8807373046875 -151.9882965087891 536.8803100585938 -151.9882965087891 C 535.6256713867188 -164.8859405517578 524.7221069335938 -174.9999847412109 511.5006103515625 -174.9999847412109 C 497.4398193359375 -174.9999847412109 486.0005187988281 -163.5606994628906 486.0005187988281 -149.4999084472656 C 486.0005187988281 -147.3477783203125 486.2669372558594 -145.2506408691406 486.7705993652344 -143.2445678710938 Z" stroke="none"/>
    <path d="M 506.1017456054688 -120.4908218383789 L 506.1006469726563 -120.4910202026367 C 504.0224914550781 -120.8751907348633 501.975830078125 -121.4898986816406 500.0175170898438 -122.3180999755859 C 496.5031433105469 -123.8047180175781 493.3482055664063 -125.9319152832031 490.6404113769531 -128.6405944824219 C 487.9303588867188 -131.3506622314453 485.8031921386719 -134.5055694580078 484.3179016113281 -138.0176849365234 C 482.7801208496094 -141.6539154052734 482.0003967285156 -145.51708984375 482.0003967285156 -149.4999084472656 C 482.0003967285156 -153.4833221435547 482.7801208496094 -157.3467864990234 484.3179016113281 -160.9829864501953 C 485.8031616210938 -164.4942169189453 487.9303588867188 -167.6491394042969 490.6404113769531 -170.360107421875 C 493.3487854003906 -173.0684356689453 496.5037231445313 -175.1953277587891 500.0175170898438 -176.6816864013672 C 503.6551208496094 -178.2200775146484 507.5185852050781 -179.0000915527344 511.5006103515625 -179.0000915527344 C 515.4820556640625 -179.0000915527344 519.34521484375 -178.2200775146484 522.9827880859375 -176.6816864013672 C 526.4951782226563 -175.1959075927734 529.6500854492188 -173.0690307617188 532.3599243164063 -170.360107421875 C 535.0699462890625 -167.6491851806641 537.1971435546875 -164.4942626953125 538.6824340820313 -160.9829864501953 C 540.2208251953125 -157.3453826904297 541.0007934570313 -153.4819030761719 541.0007934570313 -149.4999084472656 C 541.0007934570313 -148.8653869628906 540.9805908203125 -148.2244110107422 540.9407348632813 -147.5947570800781 C 539.3213500976563 -147.8630828857422 537.6596069335938 -147.9996032714844 536.0004272460938 -147.9996032714844 C 534.9791870117188 -147.9996032714844 533.94873046875 -147.9476470947266 532.9376831054688 -147.8451843261719 C 532.9791259765625 -148.387939453125 533.000732421875 -148.9443054199219 533.000732421875 -149.4999084472656 C 533.000732421875 -161.3550872802734 523.3558349609375 -170.9999847412109 511.5006103515625 -170.9999847412109 C 499.6454162597656 -170.9999847412109 490.0005187988281 -161.3550872802734 490.0005187988281 -149.4999084472656 C 490.0005187988281 -139.0131225585938 497.4947509765625 -130.1035614013672 507.8201904296875 -128.3149719238281 C 506.9004211425781 -125.8029632568359 506.322021484375 -123.1713485717773 506.1018371582031 -120.4919128417969 L 506.1017456054688 -120.4908218383789 Z" stroke="none" fill="#fff"/>
  </g>
  <path id="Path_3" data-name="Path 3" d="M32.268,440.236a32.917,32.917,0,0,1,2.857,10.52c.056.765-.4,8.392-2.857,13.587" transform="translate(307.235 -283.3)" fill="none" stroke="#fff" stroke-linecap="round" stroke-width="8"/>
</svg>
